<svg width="60" height="60" viewBox="0 0 60 60" fill="none" xmlns="http://www.w3.org/2000/svg">
<g clip-path="url(#clip0_202_180)">
<path d="M6.64964 55.3298C6.34507 54.4161 5.53285 53.7055 4.61914 53.5024V29.949L25.9389 8.62923L29.9999 4.56836L34.0608 8.62923L55.3806 29.949V53.4008C54.4669 53.7054 53.6547 54.416 53.3501 55.3297C53.3501 53.0962 51.5227 51.2688 49.2892 51.2688C47.0558 51.2688 45.2284 53.0962 45.2284 55.3297C44.1116 55.3297 43.1979 56.2434 43.1979 57.3602C43.1979 58.477 44.1116 59.3907 45.2284 59.3907H39.137V55.3298H20.8629V59.3907H14.7715C15.8883 59.3907 16.802 58.477 16.802 57.3602C16.802 56.2434 15.8883 55.3297 14.7715 55.3297C14.7715 53.0962 12.9441 51.2688 10.7106 51.2688C8.47717 51.2688 6.64964 53.0962 6.64964 55.3298Z" fill="#F2EDDA"/>
<path d="M39.1374 55.3298V59.3907H20.8633V55.3298H24.9242H35.0765H39.1374Z" fill="#F2EDDA"/>
<path d="M52.8429 59.3908H56.3962C58.1222 59.3908 59.4419 58.071 59.4419 56.3451C59.4419 54.6192 58.1222 53.2994 56.3962 53.2994C55.9902 53.2994 55.6856 53.2994 55.381 53.5025C54.4673 53.8071 53.6551 54.5177 53.3506 55.3299C53.3506 53.0965 51.5231 51.269 49.2897 51.269C47.0562 51.269 45.2288 53.0965 45.2288 55.3299C44.112 55.3299 43.1983 56.2436 43.1983 57.3604C43.1983 58.4772 44.112 59.3909 45.2288 59.3909H47.2593H52.8429V59.3908ZM14.7718 55.3299C15.8886 55.3299 16.8023 56.2436 16.8023 57.3604C16.8023 58.4772 15.8886 59.3909 14.7718 59.3909H3.60428C1.87835 59.3909 0.558594 58.0712 0.558594 56.3452C0.558594 54.6193 1.87835 53.2995 3.60428 53.2995C4.01033 53.2995 4.3149 53.2995 4.61947 53.5026C5.53317 53.8072 6.3454 54.5178 6.64996 55.33C6.64996 53.0966 8.47738 51.2692 10.7108 51.2692C12.9443 51.2692 14.7718 53.0963 14.7718 55.3299Z" fill="#50DD8E"/>
<path d="M35.0762 45.1776V55.33H24.9238V35.0254H35.0762V45.1776Z" fill="#FFD0A1"/>
<path d="M10.7109 47.3096H18.8328V35.0253H10.7109V47.3096ZM41.1678 47.3096H49.2897V35.0253H41.1678V47.3096ZM30.0002 16.7512C31.7262 16.7512 33.0459 18.071 33.0459 19.7969C33.0459 21.5228 31.7262 22.8426 30.0002 22.8426C28.2743 22.8426 26.9546 21.5228 26.9546 19.7969C26.9546 18.071 28.2743 16.7512 30.0002 16.7512Z" fill="#80D6FA"/>
<path d="M25.9394 8.62932L4.61959 29.9491L0.558594 34.0101V8.62932H12.7413V4.56844H10.711V0.507568H18.8328V4.56844H16.8023V8.62932H25.9394ZM59.4419 8.62932V34.01L55.381 29.9491L34.0613 8.62932H59.4419Z" fill="#FF7474"/>
</g>
<defs>
<clipPath id="clip0_202_180">
<rect width="60" height="60" fill="white"/>
</clipPath>
</defs>
</svg>
